<svg width="55" height="56" viewBox="0 0 55 56" fill="none" xmlns="http://www.w3.org/2000/svg">
<g filter="url(#filter0_d_5_21)">
<path d="M36.695 22.0207C35.9425 18.4008 33.1386 15.5154 29.5505 14.6676C26.5744 13.9627 23.5212 14.6268 21.1752 16.4855C18.8314 18.3419 17.4873 21.1186 17.4873 24.1038C17.4873 26.622 18.4438 29.0043 20.1778 30.8108C21.0301 31.6994 22.0433 33.1568 22.0433 35.0586V35.3487C22.0433 35.9743 22.551 36.482 23.1766 36.482H31.2256C31.8512 36.482 32.3589 35.9743 32.3589 35.3487V35.0767C32.3589 33.1659 33.3789 31.6971 34.2334 30.8018C36.4706 28.4648 37.3682 25.2643 36.695 22.0207ZM32.5946 29.2378C31.2029 30.693 30.3506 32.436 30.1421 34.2176H24.2601C24.0538 32.436 23.2038 30.6952 21.8121 29.2446C20.4838 27.8596 19.754 26.035 19.754 24.1038C19.754 21.8144 20.7853 19.686 22.5828 18.2626C24.3825 16.8391 26.7262 16.3291 29.0292 16.8754C31.765 17.5214 33.9025 19.7223 34.4782 22.4831C34.995 24.981 34.3105 27.4448 32.5946 29.2378Z" fill="#B78616"/>
<path d="M31.2347 37.0601H23.1653C22.5397 37.0601 22.032 37.5678 22.032 38.1934V39.261C22.032 40.3603 22.4853 41.3531 23.256 42.0943V43.749C23.256 45.8751 24.9854 47.6023 27.2907 47.6023C29.4168 47.6023 31.144 45.8729 31.144 43.749V42.0943C31.9147 41.3509 32.368 40.3603 32.368 39.2633V38.1934C32.368 37.5655 31.8625 37.0601 31.2347 37.0601ZM30.0991 39.3267C30.0787 39.8639 29.8135 40.349 29.3601 40.6663C29.0904 40.8567 28.7481 40.961 28.4013 40.961H25.9987C25.6519 40.961 25.3096 40.8567 25.0353 40.6641C24.5865 40.349 24.3213 39.8639 24.3009 39.3267H30.0991ZM28.8773 43.7467C28.8773 44.6217 28.1656 45.3334 27.1093 45.3334C26.2344 45.3334 25.5227 44.6217 25.5227 43.7467V43.1982C25.6791 43.2186 25.84 43.2277 25.9987 43.2277H28.4036C28.5623 43.2277 28.7232 43.2186 28.8796 43.1982V43.7467H28.8773Z" fill="#B78616"/>
<path d="M18.7385 16.6599C19.0286 16.6599 19.3188 16.5489 19.5409 16.329C19.9829 15.887 19.9829 15.1685 19.5409 14.7265L16.6486 11.8342C16.2066 11.3922 15.4881 11.3922 15.0461 11.8342C14.6041 12.2762 14.6041 12.9947 15.0461 13.4367L17.9361 16.3267C18.1582 16.5489 18.4484 16.6599 18.7385 16.6599Z" fill="#B78616"/>
<path d="M36.4638 31.6494C36.0218 31.2074 35.3033 31.2074 34.8613 31.6494C34.4193 32.0914 34.4193 32.8099 34.8613 33.2519L37.7513 36.1396C37.9734 36.3618 38.2636 36.4706 38.5537 36.4706C38.8438 36.4706 39.134 36.3595 39.3561 36.1396C39.7981 35.6976 39.7981 34.9791 39.3561 34.5371L36.4638 31.6494Z" fill="#B78616"/>
<path d="M17.9361 31.6494L15.0461 34.5371C14.6041 34.9791 14.6041 35.6976 15.0461 36.1396C15.2682 36.3618 15.5584 36.4706 15.8485 36.4706C16.1386 36.4706 16.4288 36.3595 16.6509 36.1396L19.5386 33.2519C19.9806 32.8099 19.9806 32.0914 19.5386 31.6494C19.0966 31.2074 18.3781 31.2074 17.9361 31.6494Z" fill="#B78616"/>
<path d="M36.4638 16.3267L39.3538 13.4367C39.7958 12.9947 39.7958 12.2762 39.3538 11.8342C38.9118 11.3922 38.1933 11.3922 37.7513 11.8342L34.8613 14.7242C34.4193 15.1662 34.4193 15.8847 34.8613 16.3267C35.0834 16.5489 35.3736 16.6577 35.6637 16.6577C35.9538 16.6577 36.2417 16.5489 36.4638 16.3267Z" fill="#B78616"/>
<path d="M28.3333 12.0199V7.93314C28.3333 7.30754 27.8256 6.7998 27.2 6.7998C26.5744 6.7998 26.0667 7.30754 26.0667 7.93314V12.0199C26.0667 12.6455 26.5744 13.1533 27.2 13.1533C27.8256 13.1533 28.3333 12.6455 28.3333 12.0199Z" fill="#B78616"/>
<path d="M13.7494 27.2783C13.7494 27.885 13.7724 28.3861 13.8186 28.7817C13.3702 28.762 12.6152 28.7521 11.5536 28.7521C10.1161 28.7521 9.04128 28.762 8.32913 28.7817V28.5839C8.54673 28.5707 8.70499 28.5444 8.8039 28.5048C8.9094 28.4652 8.97864 28.3894 9.01161 28.2773C9.05117 28.1652 9.07095 27.9839 9.07095 27.7333V22.8274C9.07095 22.5768 9.05117 22.3955 9.01161 22.2834C8.97864 22.1713 8.9094 22.0955 8.8039 22.0559C8.70499 22.0164 8.54673 21.99 8.32913 21.9768V21.779C9.04128 21.7988 10.1161 21.8086 11.5536 21.8086C12.5229 21.8086 13.2119 21.7988 13.6208 21.779C13.5746 22.3263 13.5515 22.8142 13.5515 23.2428C13.5515 23.533 13.5614 23.7572 13.5812 23.9154H13.3537C13.2548 23.2099 13.0768 22.7153 12.8196 22.4318C12.5624 22.1482 12.1998 22.0065 11.7316 22.0065H11.3261C11.1217 22.0065 10.9733 22.0229 10.881 22.0559C10.7887 22.0889 10.726 22.1548 10.6931 22.2537C10.6601 22.346 10.6436 22.4977 10.6436 22.7087V25.1617H10.9601C11.3096 25.1617 11.5734 25.0331 11.7514 24.7759C11.936 24.5188 12.0646 24.2121 12.1371 23.8561H12.3646C12.3448 24.133 12.335 24.4429 12.335 24.7858V25.2606C12.335 25.5969 12.3547 26.065 12.3943 26.6651H12.1668C12.0283 25.7947 11.6261 25.3595 10.9601 25.3595H10.6436V27.852C10.6436 28.063 10.6601 28.218 10.6931 28.3169C10.726 28.4092 10.7887 28.4718 10.881 28.5048C10.9733 28.5378 11.1217 28.5542 11.3261 28.5542H11.8107C12.2789 28.5542 12.6548 28.396 12.9383 28.0795C13.2284 27.7564 13.4328 27.2124 13.5515 26.4475H13.779C13.7592 26.6651 13.7494 26.942 13.7494 27.2783Z" fill="#B78616"/>
<path d="M47.5761 21.8086C47.886 21.8086 48.1398 21.7988 48.3377 21.779V21.9768C48.1728 22.0427 48.0113 22.1713 47.853 22.3625C47.7013 22.5472 47.5728 22.8109 47.4673 23.1538L45.7265 28.8015C45.6539 28.7949 45.5385 28.7916 45.3803 28.7916C45.222 28.7916 45.1066 28.7949 45.0341 28.8015L43.5801 24.3902L42.1163 28.8015C42.0437 28.7949 41.9283 28.7916 41.7701 28.7916C41.6118 28.7916 41.4964 28.7949 41.4239 28.8015L39.2083 22.6098C39.1292 22.3922 39.0336 22.234 38.9215 22.135C38.8094 22.0361 38.6973 21.9834 38.5852 21.9768V21.779C38.9809 21.7988 39.4721 21.8086 40.059 21.8086C40.6129 21.8086 41.0184 21.7988 41.2755 21.779V21.9768C41.0448 22.0098 40.9294 22.1383 40.9294 22.3625C40.9294 22.468 40.959 22.6164 41.0184 22.8076L42.4625 26.9915L43.4614 24.044L42.957 22.5109C42.8911 22.3197 42.8119 22.1878 42.7196 22.1153C42.6339 22.0361 42.5317 21.99 42.413 21.9768V21.779C42.7823 21.7988 43.2537 21.8086 43.8274 21.8086C44.4736 21.8086 44.9484 21.7988 45.2517 21.779V21.9768C45.0143 21.9834 44.8429 22.0131 44.7374 22.0658C44.6319 22.112 44.5791 22.2043 44.5791 22.3428C44.5791 22.4614 44.6121 22.6164 44.678 22.8076L46.0331 26.942L46.9727 23.955C47.1244 23.4604 47.2002 23.078 47.2002 22.8076C47.2002 22.5241 47.1277 22.3197 46.9826 22.1944C46.8441 22.0625 46.6331 21.99 46.3496 21.9768V21.779C46.798 21.7988 47.2068 21.8086 47.5761 21.8086Z" fill="#B78616"/>
</g>
<defs>
<filter id="filter0_d_5_21" x="-4" y="0" width="62.4" height="62.3999" filterUnits="userSpaceOnUse" color-interpolation-filters="sRGB">
<feFlood flood-opacity="0" result="BackgroundImageFix"/>
<feColorMatrix in="SourceAlpha" type="matrix" values="0 0 0 0 0 0 0 0 0 0 0 0 0 0 0 0 0 0 127 0" result="hardAlpha"/>
<feOffset dy="4"/>
<feGaussianBlur stdDeviation="2"/>
<feComposite in2="hardAlpha" operator="out"/>
<feColorMatrix type="matrix" values="0 0 0 0 0 0 0 0 0 0 0 0 0 0 0 0 0 0 0.25 0"/>
<feBlend mode="normal" in2="BackgroundImageFix" result="effect1_dropShadow_5_21"/>
<feBlend mode="normal" in="SourceGraphic" in2="effect1_dropShadow_5_21" result="shape"/>
</filter>
</defs>
</svg>
