<svg width="140" height="56" viewBox="0 0 140 56" fill="none" xmlns="http://www.w3.org/2000/svg">
<g filter="url(#filter0_d_11_201)">
<path d="M64.6307 31.696C64.6307 32.38 64.6727 33.148 64.7567 34C63.9407 33.964 62.5667 33.946 60.6347 33.946C58.3307 33.946 56.5907 33.964 55.4147 34V33.64C55.8467 33.616 56.1587 33.568 56.3507 33.496C56.5547 33.424 56.6927 33.286 56.7647 33.082C56.8367 32.878 56.8727 32.548 56.8727 32.092V23.164C56.8727 22.708 56.8367 22.378 56.7647 22.174C56.6927 21.97 56.5547 21.832 56.3507 21.76C56.1587 21.688 55.8467 21.64 55.4147 21.616V21.256C56.5907 21.292 58.3307 21.31 60.6347 21.31C62.3987 21.31 63.6527 21.292 64.3967 21.256C64.3127 22.048 64.2707 22.756 64.2707 23.38C64.2707 23.848 64.2887 24.22 64.3247 24.496H63.9107C63.8267 23.716 63.7187 23.14 63.5867 22.768C63.4547 22.384 63.2327 22.108 62.9207 21.94C62.6087 21.76 62.1347 21.67 61.4987 21.67H60.0047C59.5727 21.67 59.2547 21.706 59.0507 21.778C58.8587 21.838 58.7267 21.97 58.6547 22.174C58.5827 22.378 58.5467 22.708 58.5467 23.164V27.412H59.7347C60.1547 27.412 60.4787 27.316 60.7067 27.124C60.9347 26.92 61.0847 26.686 61.1567 26.422C61.2407 26.146 61.3067 25.804 61.3547 25.396L61.4087 25.036H61.8227C61.7867 25.54 61.7687 26.104 61.7687 26.728V27.592C61.7687 28.204 61.8047 29.056 61.8767 30.148H61.4627C61.4507 30.064 61.4147 29.776 61.3547 29.284C61.2947 28.78 61.1267 28.402 60.8507 28.15C60.5867 27.898 60.2147 27.772 59.7347 27.772H58.5467V32.092C58.5467 32.548 58.5827 32.878 58.6547 33.082C58.7267 33.286 58.8587 33.424 59.0507 33.496C59.2547 33.556 59.5727 33.586 60.0047 33.586H61.3187C62.0627 33.586 62.6267 33.49 63.0107 33.298C63.4067 33.094 63.6947 32.776 63.8747 32.344C64.0547 31.9 64.1867 31.252 64.2707 30.4H64.6847C64.6487 30.724 64.6307 31.156 64.6307 31.696ZM72.0535 21.616C71.6215 21.64 71.3035 21.688 71.0995 21.76C70.9075 21.832 70.7755 21.97 70.7035 22.174C70.6315 22.378 70.5955 22.708 70.5955 23.164V32.092C70.5955 32.548 70.6315 32.878 70.7035 33.082C70.7755 33.286 70.9075 33.424 71.0995 33.496C71.3035 33.556 71.6215 33.586 72.0535 33.586H73.3675C74.1115 33.586 74.6755 33.484 75.0595 33.28C75.4555 33.064 75.7435 32.722 75.9235 32.254C76.1035 31.786 76.2355 31.108 76.3195 30.22H76.7335C76.6975 30.592 76.6795 31.084 76.6795 31.696C76.6795 32.38 76.7215 33.148 76.8055 34C75.9895 33.964 74.6155 33.946 72.6835 33.946C70.3795 33.946 68.6395 33.964 67.4635 34V33.64C67.8955 33.616 68.2075 33.568 68.3995 33.496C68.6035 33.424 68.7415 33.286 68.8135 33.082C68.8855 32.878 68.9215 32.548 68.9215 32.092V23.164C68.9215 22.708 68.8855 22.378 68.8135 22.174C68.7415 21.97 68.6035 21.832 68.3995 21.76C68.2075 21.688 67.8955 21.64 67.4635 21.616V21.256C67.9675 21.292 68.7355 21.31 69.7675 21.31C70.7275 21.31 71.4895 21.292 72.0535 21.256V21.616ZM90.1595 21.616C89.7395 21.64 89.4275 21.706 89.2235 21.814C89.0195 21.91 88.8815 22.078 88.8095 22.318C88.7375 22.546 88.7015 22.888 88.7015 23.344V28.762C88.7015 29.626 88.6415 30.37 88.5215 30.994C88.4135 31.606 88.2275 32.134 87.9635 32.578C87.6635 33.094 87.2195 33.502 86.6315 33.802C86.0555 34.102 85.4015 34.252 84.6695 34.252C83.3495 34.252 82.3415 33.928 81.6455 33.28C81.1175 32.788 80.7635 32.23 80.5835 31.606C80.4035 30.982 80.3135 30.052 80.3135 28.816V23.164C80.3135 22.708 80.2775 22.378 80.2055 22.174C80.1335 21.97 79.9955 21.832 79.7915 21.76C79.5995 21.688 79.2875 21.64 78.8555 21.616V21.256C79.3595 21.292 80.1275 21.31 81.1595 21.31C82.1315 21.31 82.8935 21.292 83.4455 21.256V21.616C83.0135 21.64 82.6955 21.688 82.4915 21.76C82.2995 21.832 82.1675 21.97 82.0955 22.174C82.0235 22.378 81.9875 22.708 81.9875 23.164V29.122C81.9875 30.082 82.0535 30.88 82.1855 31.516C82.3175 32.152 82.5875 32.662 82.9955 33.046C83.4155 33.43 84.0275 33.622 84.8315 33.622C86.1035 33.622 86.9975 33.214 87.5135 32.398C88.0295 31.582 88.2875 30.436 88.2875 28.96V23.344C88.2875 22.696 88.1675 22.252 87.9275 22.012C87.6995 21.772 87.2735 21.64 86.6495 21.616V21.256C87.0815 21.292 87.6935 21.31 88.4855 21.31C89.2055 21.31 89.7635 21.292 90.1595 21.256V21.616ZM101.619 21.616L94.437 33.586H97.965C98.709 33.586 99.273 33.484 99.657 33.28C100.053 33.064 100.341 32.722 100.521 32.254C100.701 31.786 100.833 31.108 100.917 30.22H101.331C101.295 30.592 101.277 31.084 101.277 31.696C101.277 32.38 101.319 33.148 101.403 34C100.515 33.964 99.021 33.946 96.921 33.946C94.869 33.946 93.387 33.964 92.475 34V33.64L99.711 21.67H96.201C95.457 21.67 94.887 21.778 94.491 21.994C94.107 22.198 93.825 22.534 93.645 23.002C93.465 23.47 93.333 24.148 93.249 25.036H92.835C92.871 24.652 92.889 24.16 92.889 23.56C92.889 22.876 92.847 22.108 92.763 21.256C93.651 21.292 95.145 21.31 97.245 21.31C99.285 21.31 100.743 21.292 101.619 21.256V21.616ZM119.033 25.54C119.393 25.54 119.693 25.528 119.933 25.504V25.744C119.485 25.848 119.169 26.196 118.985 26.788L116.717 34.06H116.621H116.525L114.437 27.88L112.529 34.06H112.433H112.337L109.793 26.512C109.625 26.016 109.349 25.76 108.965 25.744V25.504C109.293 25.528 109.721 25.54 110.249 25.54C110.825 25.54 111.257 25.528 111.545 25.504V25.744C111.329 25.76 111.177 25.8 111.089 25.864C111.001 25.928 110.957 26.028 110.957 26.164C110.957 26.292 111.001 26.488 111.089 26.752L112.841 32.104L114.305 27.46L113.981 26.512C113.821 26.016 113.585 25.76 113.273 25.744V25.504C113.561 25.528 113.949 25.54 114.437 25.54C115.125 25.54 115.637 25.528 115.973 25.504V25.744C115.669 25.76 115.457 25.796 115.337 25.852C115.217 25.9 115.157 26.008 115.157 26.176C115.157 26.32 115.197 26.512 115.277 26.752L117.005 32.092L118.481 27.448C118.609 27.056 118.673 26.732 118.673 26.476C118.673 26.212 118.593 26.028 118.433 25.924C118.273 25.812 118.013 25.752 117.653 25.744V25.504C118.109 25.528 118.569 25.54 119.033 25.54ZM127.28 32.464C127.28 32.92 127.308 33.432 127.364 34C126.82 33.976 125.904 33.964 124.616 33.964C123.08 33.964 121.92 33.976 121.136 34V33.76C121.424 33.744 121.632 33.712 121.76 33.664C121.896 33.616 121.988 33.524 122.036 33.388C122.084 33.252 122.108 33.032 122.108 32.728V26.776C122.108 26.472 122.084 26.252 122.036 26.116C121.988 25.98 121.896 25.888 121.76 25.84C121.632 25.792 121.424 25.76 121.136 25.744V25.504C121.92 25.528 123.08 25.54 124.616 25.54C125.792 25.54 126.628 25.528 127.124 25.504C127.068 26.032 127.04 26.504 127.04 26.92C127.04 27.232 127.052 27.48 127.076 27.664H126.8C126.744 27.144 126.672 26.76 126.584 26.512C126.496 26.256 126.348 26.072 126.14 25.96C125.932 25.84 125.616 25.78 125.192 25.78H124.196C123.908 25.78 123.696 25.804 123.56 25.852C123.432 25.892 123.344 25.98 123.296 26.116C123.248 26.252 123.224 26.472 123.224 26.776V29.608H124.016C124.296 29.608 124.512 29.544 124.664 29.416C124.816 29.28 124.916 29.124 124.964 28.948C125.02 28.764 125.064 28.536 125.096 28.264L125.132 28.024H125.408C125.384 28.36 125.372 28.736 125.372 29.152V29.728C125.372 30.136 125.396 30.704 125.444 31.432H125.168C125.16 31.376 125.136 31.184 125.096 30.856C125.056 30.52 124.944 30.268 124.76 30.1C124.584 29.932 124.336 29.848 124.016 29.848H123.224V32.728C123.224 33.032 123.248 33.252 123.296 33.388C123.344 33.524 123.432 33.616 123.56 33.664C123.696 33.704 123.908 33.724 124.196 33.724H125.072C125.568 33.724 125.944 33.66 126.2 33.532C126.464 33.396 126.656 33.184 126.776 32.896C126.896 32.6 126.984 32.168 127.04 31.6H127.316C127.292 31.816 127.28 32.104 127.28 32.464ZM133.153 29.512C134.033 29.632 134.661 29.888 135.037 30.28C135.413 30.664 135.601 31.128 135.601 31.672C135.601 32.128 135.485 32.532 135.253 32.884C135.021 33.236 134.689 33.512 134.257 33.712C133.825 33.904 133.313 34 132.721 34C132.505 34 132.321 33.996 132.169 33.988C131.657 33.972 131.153 33.964 130.657 33.964C130.001 33.964 129.505 33.976 129.169 34V33.76C129.457 33.744 129.665 33.712 129.793 33.664C129.929 33.616 130.021 33.524 130.069 33.388C130.117 33.252 130.141 33.032 130.141 32.728V26.776C130.141 26.472 130.117 26.252 130.069 26.116C130.021 25.98 129.929 25.888 129.793 25.84C129.665 25.792 129.457 25.76 129.169 25.744V25.504C129.505 25.528 129.993 25.54 130.633 25.54L131.929 25.528C132.081 25.52 132.253 25.516 132.445 25.516C133.261 25.516 133.885 25.688 134.317 26.032C134.757 26.376 134.977 26.832 134.977 27.4C134.977 27.864 134.829 28.28 134.533 28.648C134.245 29.016 133.785 29.296 133.153 29.488V29.512ZM132.145 25.744C131.897 25.744 131.709 25.772 131.581 25.828C131.461 25.884 131.377 25.984 131.329 26.128C131.281 26.272 131.257 26.488 131.257 26.776V29.488H132.061C132.717 29.488 133.173 29.312 133.429 28.96C133.693 28.6 133.825 28.124 133.825 27.532C133.825 26.932 133.693 26.484 133.429 26.188C133.165 25.892 132.737 25.744 132.145 25.744ZM132.157 33.724C133.653 33.724 134.401 33.024 134.401 31.624C134.401 30.992 134.229 30.512 133.885 30.184C133.549 29.856 133.009 29.692 132.265 29.692H131.257V32.728C131.257 33.016 131.281 33.228 131.329 33.364C131.377 33.5 131.461 33.596 131.581 33.652C131.709 33.7 131.901 33.724 132.157 33.724Z" fill="#B78616"/>
</g>
<g filter="url(#filter1_d_11_201)">
<path d="M36.695 22.0207C35.9425 18.4008 33.1386 15.5154 29.5505 14.6676C26.5744 13.9627 23.5212 14.6268 21.1752 16.4855C18.8314 18.3419 17.4873 21.1186 17.4873 24.1038C17.4873 26.622 18.4438 29.0043 20.1778 30.8108C21.0301 31.6994 22.0433 33.1568 22.0433 35.0586V35.3487C22.0433 35.9743 22.551 36.482 23.1766 36.482H31.2256C31.8512 36.482 32.3589 35.9743 32.3589 35.3487V35.0767C32.3589 33.1659 33.3789 31.6971 34.2334 30.8018C36.4706 28.4648 37.3682 25.2643 36.695 22.0207ZM32.5946 29.2378C31.2029 30.693 30.3506 32.436 30.1421 34.2176H24.2601C24.0538 32.436 23.2038 30.6952 21.8121 29.2446C20.4838 27.8596 19.754 26.035 19.754 24.1038C19.754 21.8144 20.7853 19.686 22.5828 18.2626C24.3825 16.8391 26.7262 16.3291 29.0292 16.8754C31.765 17.5214 33.9025 19.7223 34.4782 22.4831C34.995 24.981 34.3105 27.4448 32.5946 29.2378Z" fill="#B78616"/>
<path d="M31.2347 37.0601H23.1653C22.5397 37.0601 22.032 37.5678 22.032 38.1934V39.261C22.032 40.3603 22.4853 41.3531 23.256 42.0943V43.749C23.256 45.8751 24.9854 47.6023 27.2907 47.6023C29.4168 47.6023 31.144 45.8729 31.144 43.749V42.0943C31.9147 41.3509 32.368 40.3603 32.368 39.2633V38.1934C32.368 37.5655 31.8625 37.0601 31.2347 37.0601ZM30.0991 39.3267C30.0787 39.8639 29.8135 40.349 29.3601 40.6663C29.0904 40.8567 28.7481 40.961 28.4013 40.961H25.9987C25.6519 40.961 25.3096 40.8567 25.0353 40.6641C24.5865 40.349 24.3213 39.8639 24.3009 39.3267H30.0991ZM28.8773 43.7467C28.8773 44.6217 28.1656 45.3334 27.1093 45.3334C26.2344 45.3334 25.5227 44.6217 25.5227 43.7467V43.1982C25.6791 43.2186 25.84 43.2277 25.9987 43.2277H28.4036C28.5623 43.2277 28.7232 43.2186 28.8796 43.1982V43.7467H28.8773Z" fill="#B78616"/>
<path d="M18.7385 16.6599C19.0286 16.6599 19.3188 16.5489 19.5409 16.329C19.9829 15.887 19.9829 15.1685 19.5409 14.7265L16.6486 11.8342C16.2066 11.3922 15.4881 11.3922 15.0461 11.8342C14.6041 12.2762 14.6041 12.9947 15.0461 13.4367L17.9361 16.3267C18.1582 16.5489 18.4484 16.6599 18.7385 16.6599Z" fill="#B78616"/>
<path d="M36.4638 31.6494C36.0218 31.2074 35.3033 31.2074 34.8613 31.6494C34.4193 32.0914 34.4193 32.8099 34.8613 33.2519L37.7513 36.1396C37.9734 36.3618 38.2636 36.4706 38.5537 36.4706C38.8438 36.4706 39.134 36.3595 39.3561 36.1396C39.7981 35.6976 39.7981 34.9791 39.3561 34.5371L36.4638 31.6494Z" fill="#B78616"/>
<path d="M17.9361 31.6494L15.0461 34.5371C14.6041 34.9791 14.6041 35.6976 15.0461 36.1396C15.2682 36.3618 15.5584 36.4706 15.8485 36.4706C16.1386 36.4706 16.4288 36.3595 16.6509 36.1396L19.5386 33.2519C19.9806 32.8099 19.9806 32.0914 19.5386 31.6494C19.0966 31.2074 18.3781 31.2074 17.9361 31.6494Z" fill="#B78616"/>
<path d="M36.4638 16.3267L39.3538 13.4367C39.7958 12.9947 39.7958 12.2762 39.3538 11.8342C38.9118 11.3922 38.1933 11.3922 37.7513 11.8342L34.8613 14.7242C34.4193 15.1662 34.4193 15.8847 34.8613 16.3267C35.0834 16.5489 35.3736 16.6577 35.6637 16.6577C35.9538 16.6577 36.2417 16.5489 36.4638 16.3267Z" fill="#B78616"/>
<path d="M28.3333 12.0199V7.93314C28.3333 7.30754 27.8256 6.7998 27.2 6.7998C26.5744 6.7998 26.0667 7.30754 26.0667 7.93314V12.0199C26.0667 12.6455 26.5744 13.1533 27.2 13.1533C27.8256 13.1533 28.3333 12.6455 28.3333 12.0199Z" fill="#B78616"/>
<path d="M13.7494 27.2783C13.7494 27.885 13.7724 28.3861 13.8186 28.7817C13.3702 28.762 12.6152 28.7521 11.5536 28.7521C10.1161 28.7521 9.04128 28.762 8.32913 28.7817V28.5839C8.54673 28.5707 8.70499 28.5444 8.8039 28.5048C8.9094 28.4652 8.97864 28.3894 9.01161 28.2773C9.05117 28.1652 9.07095 27.9839 9.07095 27.7333V22.8274C9.07095 22.5768 9.05117 22.3955 9.01161 22.2834C8.97864 22.1713 8.9094 22.0955 8.8039 22.0559C8.70499 22.0164 8.54673 21.99 8.32913 21.9768V21.779C9.04128 21.7988 10.1161 21.8086 11.5536 21.8086C12.5229 21.8086 13.2119 21.7988 13.6208 21.779C13.5746 22.3263 13.5515 22.8142 13.5515 23.2428C13.5515 23.533 13.5614 23.7572 13.5812 23.9154H13.3537C13.2548 23.2099 13.0768 22.7153 12.8196 22.4318C12.5624 22.1482 12.1998 22.0065 11.7316 22.0065H11.3261C11.1217 22.0065 10.9733 22.0229 10.881 22.0559C10.7887 22.0889 10.726 22.1548 10.6931 22.2537C10.6601 22.346 10.6436 22.4977 10.6436 22.7087V25.1617H10.9601C11.3096 25.1617 11.5734 25.0331 11.7514 24.7759C11.936 24.5188 12.0646 24.2121 12.1371 23.8561H12.3646C12.3448 24.133 12.335 24.4429 12.335 24.7858V25.2606C12.335 25.5969 12.3547 26.065 12.3943 26.6651H12.1668C12.0283 25.7947 11.6261 25.3595 10.9601 25.3595H10.6436V27.852C10.6436 28.063 10.6601 28.218 10.6931 28.3169C10.726 28.4092 10.7887 28.4718 10.881 28.5048C10.9733 28.5378 11.1217 28.5542 11.3261 28.5542H11.8107C12.2789 28.5542 12.6548 28.396 12.9383 28.0795C13.2284 27.7564 13.4328 27.2124 13.5515 26.4475H13.779C13.7592 26.6651 13.7494 26.942 13.7494 27.2783Z" fill="#B78616"/>
<path d="M47.5761 21.8086C47.886 21.8086 48.1398 21.7988 48.3377 21.779V21.9768C48.1728 22.0427 48.0113 22.1713 47.853 22.3625C47.7013 22.5472 47.5728 22.8109 47.4673 23.1538L45.7265 28.8015C45.6539 28.7949 45.5385 28.7916 45.3803 28.7916C45.222 28.7916 45.1066 28.7949 45.0341 28.8015L43.5801 24.3902L42.1163 28.8015C42.0437 28.7949 41.9283 28.7916 41.7701 28.7916C41.6118 28.7916 41.4964 28.7949 41.4239 28.8015L39.2083 22.6098C39.1292 22.3922 39.0336 22.234 38.9215 22.135C38.8094 22.0361 38.6973 21.9834 38.5852 21.9768V21.779C38.9809 21.7988 39.4721 21.8086 40.059 21.8086C40.6129 21.8086 41.0184 21.7988 41.2755 21.779V21.9768C41.0448 22.0098 40.9294 22.1383 40.9294 22.3625C40.9294 22.468 40.959 22.6164 41.0184 22.8076L42.4625 26.9915L43.4614 24.044L42.957 22.5109C42.8911 22.3197 42.8119 22.1878 42.7196 22.1153C42.6339 22.0361 42.5317 21.99 42.413 21.9768V21.779C42.7823 21.7988 43.2537 21.8086 43.8274 21.8086C44.4736 21.8086 44.9484 21.7988 45.2517 21.779V21.9768C45.0143 21.9834 44.8429 22.0131 44.7374 22.0658C44.6319 22.112 44.5791 22.2043 44.5791 22.3428C44.5791 22.4614 44.6121 22.6164 44.678 22.8076L46.0331 26.942L46.9727 23.955C47.1244 23.4604 47.2002 23.078 47.2002 22.8076C47.2002 22.5241 47.1277 22.3197 46.9826 22.1944C46.8441 22.0625 46.6331 21.99 46.3496 21.9768V21.779C46.798 21.7988 47.2068 21.8086 47.5761 21.8086Z" fill="#B78616"/>
</g>
<defs>
<filter id="filter0_d_11_201" x="51.4147" y="21.2561" width="88.186" height="20.9958" filterUnits="userSpaceOnUse" color-interpolation-filters="sRGB">
<feFlood flood-opacity="0" result="BackgroundImageFix"/>
<feColorMatrix in="SourceAlpha" type="matrix" values="0 0 0 0 0 0 0 0 0 0 0 0 0 0 0 0 0 0 127 0" result="hardAlpha"/>
<feOffset dy="4"/>
<feGaussianBlur stdDeviation="2"/>
<feComposite in2="hardAlpha" operator="out"/>
<feColorMatrix type="matrix" values="0 0 0 0 0 0 0 0 0 0 0 0 0 0 0 0 0 0 0.25 0"/>
<feBlend mode="normal" in2="BackgroundImageFix" result="effect1_dropShadow_11_201"/>
<feBlend mode="normal" in="SourceGraphic" in2="effect1_dropShadow_11_201" result="shape"/>
</filter>
<filter id="filter1_d_11_201" x="-4" y="0" width="62.4" height="62.3999" filterUnits="userSpaceOnUse" color-interpolation-filters="sRGB">
<feFlood flood-opacity="0" result="BackgroundImageFix"/>
<feColorMatrix in="SourceAlpha" type="matrix" values="0 0 0 0 0 0 0 0 0 0 0 0 0 0 0 0 0 0 127 0" result="hardAlpha"/>
<feOffset dy="4"/>
<feGaussianBlur stdDeviation="2"/>
<feComposite in2="hardAlpha" operator="out"/>
<feColorMatrix type="matrix" values="0 0 0 0 0 0 0 0 0 0 0 0 0 0 0 0 0 0 0.25 0"/>
<feBlend mode="normal" in2="BackgroundImageFix" result="effect1_dropShadow_11_201"/>
<feBlend mode="normal" in="SourceGraphic" in2="effect1_dropShadow_11_201" result="shape"/>
</filter>
</defs>
</svg>
